  0
SECTION
  2
HEADER
  9
$ACADVER
  1
AC1014
  9
$HANDSEED
  5
FFFF
  9
$MEASUREMENT
 70
     1
  0
ENDSEC
  0
SECTION
  2
TABLES
  0
TABLE
  2
VPORT
  5
8
330
0
100
AcDbSymbolTable
 70
     4
  0
VPORT
  5
2E
330
8
100
AcDbSymbolTableRecord
100
AcDbViewportTableRecord
  2
*ACTIVE
 70
     0
 10
0.0
 20
0.0
 11
1.0
 21
1.0
 12
210.0
 22
148.5
 13
0.0
 23
0.0
 14
10.0
 24
10.0
 15
10.0
 25
10.0
 16
0.0
 26
0.0
 36
1.0
 17
0.0
 27
0.0
 37
0.0
 40
341.0
 41
1.24
 42
50.0
 43
0.0
 44
0.0
 50
0.0
 51
0.0
 71
     0
 72
   100
 73
     1
 74
     3
 75
     0
 76
     0
 77
     0
 78
     0
  0
ENDTAB
  0
TABLE
  2
LTYPE
  5
5
330
0
100
AcDbSymbolTable
 70
     1
  0
LTYPE
  5
14
330
5
100
AcDbSymbolTableRecord
100
AcDbLinetypeTableRecord
  2
BYBLOCK
 70
     0
  3

 72
    65
 73
     0
 40
0.0
  0
LTYPE
  5
15
330
5
100
AcDbSymbolTableRecord
100
AcDbLinetypeTableRecord
  2
BYLAYER
 70
     0
  3

 72
    65
 73
     0
 40
0.0
  0
LTYPE
  5
16
330
5
100
AcDbSymbolTableRecord
100
AcDbLinetypeTableRecord
  2
CONTINUOUS
 70
     0
  3
Solid line
 72
    65
 73
     0
 40
0.0
  0
ENDTAB
  0
TABLE
  2
LAYER
  5
2
100
AcDbSymbolTable
 70
1
  0
LAYER
  5
50
100
AcDbSymbolTableRecord
100
AcDbLayerTableRecord
  2
0
 70
0
  6
CONTINUOUS
  0
ENDTAB
  0
TABLE
  2
STYLE
  5
3
330
0
100
AcDbSymbolTable
 70
     1
  0
STYLE
  5
11
330
3
100
AcDbSymbolTableRecord
100
AcDbTextStyleTableRecord
  2
STANDARD
 70
     0
 40
0.0
 41
1.0
 50
0.0
 71
     0
 42
2.5
  3
txt
  4

  0
ENDTAB
  0
TABLE
  2
VIEW
  5
6
330
0
100
AcDbSymbolTable
 70
     0
  0
ENDTAB
  0
TABLE
  2
UCS
  5
7
330
0
100
AcDbSymbolTable
 70
     0
  0
ENDTAB
  0
TABLE
  2
APPID
  5
9
330
0
100
AcDbSymbolTable
 70
     2
  0
APPID
  5
12
330
9
100
AcDbSymbolTableRecord
100
AcDbRegAppTableRecord
  2
ACAD
 70
     0
  0
ENDTAB
  0
TABLE
  2
DIMSTYLE
  5
A
330
0
100
AcDbSymbolTable
 70
     1
  0
DIMSTYLE
105
27
330
A
100
AcDbSymbolTableRecord
100
AcDbDimStyleTableRecord
  2
ISO-25
 70
     0
  3

  4

  5

  6

  7

 40
1.0
 41
2.5
 42
0.625
 43
3.75
 44
1.25
 45
0.0
 46
0.0
 47
0.0
 48
0.0
140
2.5
141
2.5
142
0.0
143
0.03937007874016
144
1.0
145
0.0
146
1.0
147
0.625
 71
     0
 72
     0
 73
     0
 74
     0
 75
     0
 76
     0
 77
     1
 78
     8
170
     0
171
     3
172
     1
173
     0
174
     0
175
     0
176
     0
177
     0
178
     0
270
     2
271
     2
272
     2
273
     2
274
     3
340
11
275
     0
280
     0
281
     0
282
     0
283
     0
284
     8
285
     0
286
     0
287
     3
288
     0
  0
ENDTAB
  0
TABLE
  2
BLOCK_RECORD
  5
1
330
0
100
AcDbSymbolTable
 70
     1
  0
BLOCK_RECORD
  5
1F
330
1
100
AcDbSymbolTableRecord
100
AcDbBlockTableRecord
  2
*MODEL_SPACE
  0
BLOCK_RECORD
  5
1B
330
1
100
AcDbSymbolTableRecord
100
AcDbBlockTableRecord
  2
*PAPER_SPACE
  0
ENDTAB
  0
ENDSEC
  0
SECTION
  2
BLOCKS
  0
BLOCK
  5
20
330
1F
100
AcDbEntity
  8
0
100
AcDbBlockBegin
  2
*MODEL_SPACE
 70
     0
 10
0.0
 20
0.0
 30
0.0
  3
*MODEL_SPACE
  1

  0
ENDBLK
  5
21
330
1F
100
AcDbEntity
  8
0
100
AcDbBlockEnd
  0
BLOCK
  5
1C
330
1B
100
AcDbEntity
 67
     1
  8
0
100
AcDbBlockBegin
  2
*PAPER_SPACE
  1

  0
ENDBLK
  5
1D
330
1B
100
AcDbEntity
 67
     1
  8
0
100
AcDbBlockEnd
  0
ENDSEC
  0
SECTION
  2
ENTITIES
  0
SPLINE
  5
100
100
AcDbEntity
  8
0
 62
7
100
AcDbSpline
 70
8
 71
3
 72
8
 73
4
 74
0
 40
0
 40
0
 40
0
 40
0
 40
1
 40
1
 40
1
 40
1
 10
8.942323
 20
89.813137
 30
0.0
 10
9.645738
 20
89.813137
 30
0.0
 10
10.217842
 20
89.130547
 30
0.0
 10
10.217842
 20
88.291770
 30
0.0
  0
SPLINE
  5
101
100
AcDbEntity
  8
0
 62
7
100
AcDbSpline
 70
8
 71
3
 72
8
 73
4
 74
0
 40
0
 40
0
 40
0
 40
0
 40
1
 40
1
 40
1
 40
1
 10
10.217842
 20
88.291770
 30
0.0
 10
10.217842
 20
87.452993
 30
0.0
 10
9.645738
 20
86.770788
 30
0.0
 10
8.942323
 20
86.770788
 30
0.0
  0
SPLINE
  5
102
100
AcDbEntity
  8
0
 62
7
100
AcDbSpline
 70
8
 71
3
 72
8
 73
4
 74
0
 40
0
 40
0
 40
0
 40
0
 40
1
 40
1
 40
1
 40
1
 10
8.942323
 20
86.770788
 30
0.0
 10
8.238907
 20
86.770788
 30
0.0
 10
7.666611
 20
87.452993
 30
0.0
 10
7.666611
 20
88.291770
 30
0.0
  0
SPLINE
  5
103
100
AcDbEntity
  8
0
 62
7
100
AcDbSpline
 70
8
 71
3
 72
8
 73
4
 74
0
 40
0
 40
0
 40
0
 40
0
 40
1
 40
1
 40
1
 40
1
 10
7.666611
 20
88.291770
 30
0.0
 10
7.666611
 20
89.130547
 30
0.0
 10
8.238907
 20
89.813137
 30
0.0
 10
8.942323
 20
89.813137
 30
0.0
  0
LINE
  5
104
100
AcDbEntity
  8
0
 62
7
100
AcDbLine
 10
8.942323
 20
89.813137
 30
0.0
 11
8.942323
 21
89.813137
 31
0.0
  0
SPLINE
  5
105
100
AcDbEntity
  8
0
 62
7
100
AcDbSpline
 70
8
 71
3
 72
8
 73
4
 74
0
 40
0
 40
0
 40
0
 40
0
 40
1
 40
1
 40
1
 40
1
 10
26.256794
 20
90.963129
 30
0.0
 10
25.271087
 20
99.704917
 30
0.0
 10
15.854999
 20
99.802486
 30
0.0
 10
15.755311
 20
99.802486
 30
0.0
  0
SPLINE
  5
106
100
AcDbEntity
  8
0
 62
7
100
AcDbSpline
 70
8
 71
3
 72
8
 73
4
 74
0
 40
0
 40
0
 40
0
 40
0
 40
1
 40
1
 40
1
 40
1
 10
15.755311
 20
99.802486
 30
0.0
 10
15.670276
 20
99.802486
 30
0.0
 10
15.587555
 20
99.775105
 30
0.0
 10
15.519296
 20
99.724200
 30
0.0
  0
LINE
  5
107
100
AcDbEntity
  8
0
 62
7
100
AcDbLine
 10
15.519296
 20
99.724200
 30
0.0
 11
0.357685
 21
88.411320
 31
0.0
  0
SPLINE
  5
108
100
AcDbEntity
  8
0
 62
7
100
AcDbSpline
 70
8
 71
3
 72
8
 73
4
 74
0
 40
0
 40
0
 40
0
 40
0
 40
1
 40
1
 40
1
 40
1
 10
0.357685
 20
88.411320
 30
0.0
 10
0.349707
 20
88.405361
 30
0.0
 10
0.345971
 20
88.396421
 30
0.0
 10
0.338596
 20
88.390007
 30
0.0
  0
SPLINE
  5
109
100
AcDbEntity
  8
0
 62
7
100
AcDbSpline
 70
8
 71
3
 72
8
 73
4
 74
0
 40
0
 40
0
 40
0
 40
0
 40
1
 40
1
 40
1
 40
1
 10
0.338596
 20
88.390007
 30
0.0
 10
0.312685
 20
88.367663
 30
0.0
 10
0.290752
 20
88.343200
 30
0.0
 10
0.271397
 20
88.314976
 30
0.0
  0
SPLINE
  5
10a
100
AcDbEntity
  8
0
 62
7
100
AcDbSpline
 70
8
 71
3
 72
8
 73
4
 74
0
 40
0
 40
0
 40
0
 40
0
 40
1
 40
1
 40
1
 40
1
 10
0.271397
 20
88.314976
 30
0.0
 10
0.261852
 20
88.300995
 30
0.0
 10
0.253055
 20
88.287596
 30
0.0
 10
0.245463
 20
88.272676
 30
0.0
  0
SPLINE
  5
10b
100
AcDbEntity
  8
0
 62
7
100
AcDbSpline
 70
8
 71
3
 72
8
 73
4
 74
0
 40
0
 40
0
 40
0
 40
0
 40
1
 40
1
 40
1
 40
1
 10
0.245463
 20
88.272676
 30
0.0
 10
0.230687
 20
88.243970
 30
0.0
 10
0.221118
 20
88.214010
 30
0.0
 10
0.213695
 20
88.181880
 30
0.0
  0
SPLINE
  5
10c
100
AcDbEntity
  8
0
 62
7
100
AcDbSpline
 70
8
 71
3
 72
8
 73
4
 74
0
 40
0
 40
0
 40
0
 40
0
 40
1
 40
1
 40
1
 40
1
 10
0.213695
 20
88.181880
 30
0.0
 10
0.209742
 20
88.164648
 30
0.0
 10
0.205741
 20
88.148330
 30
0.0
 10
0.204126
 20
88.130710
 30
0.0
  0
SPLINE
  5
10d
100
AcDbEntity
  8
0
 62
7
100
AcDbSpline
 70
8
 71
3
 72
8
 73
4
 74
0
 40
0
 40
0
 40
0
 40
0
 40
1
 40
1
 40
1
 40
1
 10
0.204126
 20
88.130710
 30
0.0
 10
0.202969
 20
88.118468
 30
0.0
 10
0.197450
 20
88.107596
 30
0.0
 10
0.197450
 20
88.095088
 30
0.0
  0
LINE
  5
10e
100
AcDbEntity
  8
0
 62
7
100
AcDbLine
 10
0.197450
 20
88.095088
 30
0.0
 11
0.197450
 21
84.982939
 31
0.0
  0
SPLINE
  5
10f
100
AcDbEntity
  8
0
 62
7
100
AcDbSpline
 70
8
 71
3
 72
8
 73
4
 74
0
 40
0
 40
0
 40
0
 40
0
 40
1
 40
1
 40
1
 40
1
 10
0.197450
 20
84.982939
 30
0.0
 10
0.197450
 20
84.764664
 30
0.0
 10
0.374268
 20
84.588038
 30
0.0
 10
0.592350
 20
84.588038
 30
0.0
  0
SPLINE
  5
110
100
AcDbEntity
  8
0
 62
7
100
AcDbSpline
 70
8
 71
3
 72
8
 73
4
 74
0
 40
0
 40
0
 40
0
 40
0
 40
1
 40
1
 40
1
 40
1
 10
0.592350
 20
84.588038
 30
0.0
 10
1.295958
 20
84.588038
 30
0.0
 10
1.868447
 20
83.906605
 30
0.0
 10
1.868447
 20
83.068600
 30
0.0
  0
SPLINE
  5
111
100
AcDbEntity
  8
0
 62
7
100
AcDbSpline
 70
8
 71
3
 72
8
 73
4
 74
0
 40
0
 40
0
 40
0
 40
0
 40
1
 40
1
 40
1
 40
1
 10
1.868447
 20
83.068600
 30
0.0
 10
1.868447
 20
82.228280
 30
0.0
 10
1.295958
 20
81.544918
 30
0.0
 10
0.592350
 20
81.544918
 30
0.0
  0
SPLINE
  5
112
100
AcDbEntity
  8
0
 62
7
100
AcDbSpline
 70
8
 71
3
 72
8
 73
4
 74
0
 40
0
 40
0
 40
0
 40
0
 40
1
 40
1
 40
1
 40
1
 10
0.592350
 20
81.544918
 30
0.0
 10
0.374268
 20
81.544918
 30
0.0
 10
0.197450
 20
81.368293
 30
0.0
 10
0.197450
 20
81.150018
 30
0.0
  0
LINE
  5
113
100
AcDbEntity
  8
0
 62
7
100
AcDbLine
 10
0.197450
 20
81.150018
 30
0.0
 11
0.197450
 21
77.847746
 31
0.0
  0
SPLINE
  5
114
100
AcDbEntity
  8
0
 62
7
100
AcDbSpline
 70
8
 71
3
 72
8
 73
4
 74
0
 40
0
 40
0
 40
0
 40
0
 40
1
 40
1
 40
1
 40
1
 10
0.197450
 20
77.847746
 30
0.0
 10
0.197450
 20
77.735524
 30
0.0
 10
0.245270
 20
77.628314
 30
0.0
 10
0.329147
 20
77.553499
 30
0.0
  0
SPLINE
  5
115
100
AcDbEntity
  8
0
 62
7
100
AcDbSpline
 70
8
 71
3
 72
8
 73
4
 74
0
 40
0
 40
0
 40
0
 40
0
 40
1
 40
1
 40
1
 40
1
 10
0.329147
 20
77.553499
 30
0.0
 10
0.401841
 20
77.488325
 30
0.0
 10
0.495746
 20
77.452846
 30
0.0
 10
0.592350
 20
77.452846
 30
0.0
  0
SPLINE
  5
116
100
AcDbEntity
  8
0
 62
7
100
AcDbSpline
 70
8
 71
3
 72
8
 73
4
 74
0
 40
0
 40
0
 40
0
 40
0
 40
1
 40
1
 40
1
 40
1
 10
0.592350
 20
77.452846
 30
0.0
 10
0.607004
 20
77.452846
 30
0.0
 10
0.621659
 20
77.453613
 30
0.0
 10
0.636313
 20
77.455174
 30
0.0
  0
LINE
  5
117
100
AcDbEntity
  8
0
 62
7
100
AcDbLine
 10
0.636313
 20
77.455174
 30
0.0
 11
9.093303
 21
78.401151
 31
0.0
  0
SPLINE
  5
118
100
AcDbEntity
  8
0
 62
7
100
AcDbSpline
 70
8
 71
3
 72
8
 73
4
 74
0
 40
0
 40
0
 40
0
 40
0
 40
1
 40
1
 40
1
 40
1
 10
9.093303
 20
78.401151
 30
0.0
 10
9.093938
 20
78.401223
 30
0.0
 10
9.094414
 20
78.401627
 30
0.0
 10
9.095049
 20
78.401707
 30
0.0
  0
SPLINE
  5
119
100
AcDbEntity
  8
0
 62
7
100
AcDbSpline
 70
8
 71
3
 72
8
 73
4
 74
0
 40
0
 40
0
 40
0
 40
0
 40
1
 40
1
 40
1
 40
1
 10
9.095049
 20
78.401707
 30
0.0
 10
9.096160
 20
78.401827
 30
0.0
 10
9.097377
 20
78.401779
 30
0.0
 10
9.098523
 20
78.401924
 30
0.0
  0
SPLINE
  5
11a
100
AcDbEntity
  8
0
 62
7
100
AcDbSpline
 70
8
 71
3
 72
8
 73
4
 74
0
 40
0
 40
0
 40
0
 40
0
 40
1
 40
1
 40
1
 40
1
 10
9.098523
 20
78.401924
 30
0.0
 10
9.120145
 20
78.404654
 30
0.0
 10
9.137666
 20
78.415952
 30
0.0
 10
9.157912
 20
78.421929
 30
0.0
  0
SPLINE
  5
11b
100
AcDbEntity
  8
0
 62
7
100
AcDbSpline
 70
8
 71
3
 72
8
 73
4
 74
0
 40
0
 40
0
 40
0
 40
0
 40
1
 40
1
 40
1
 40
1
 10
9.157912
 20
78.421929
 30
0.0
 10
9.187680
 20
78.430702
 30
0.0
 10
9.218941
 20
78.436240
 30
0.0
 10
9.245116
 20
78.451262
 30
0.0
  0
SPLINE
  5
11c
100
AcDbEntity
  8
0
 62
7
100
AcDbSpline
 70
8
 71
3
 72
8
 73
4
 74
0
 40
0
 40
0
 40
0
 40
0
 40
1
 40
1
 40
1
 40
1
 10
9.245116
 20
78.451262
 30
0.0
 10
9.264134
 20
78.462155
 30
0.0
 10
9.277486
 20
78.479391
 30
0.0
 10
9.294286
 20
78.493128
 30
0.0
  0
SPLINE
  5
11d
100
AcDbEntity
  8
0
 62
7
100
AcDbSpline
 70
8
 71
3
 72
8
 73
4
 74
0
 40
0
 40
0
 40
0
 40
0
 40
1
 40
1
 40
1
 40
1
 10
9.294286
 20
78.493128
 30
0.0
 10
9.316747
 20
78.511543
 30
0.0
 10
9.341479
 20
78.527260
 30
0.0
 10
9.359339
 20
78.549987
 30
0.0
  0
SPLINE
  5
11e
100
AcDbEntity
  8
0
 62
7
100
AcDbSpline
 70
8
 71
3
 72
8
 73
4
 74
0
 40
0
 40
0
 40
0
 40
0
 40
1
 40
1
 40
1
 40
1
 10
9.359339
 20
78.549987
 30
0.0
 10
9.374066
 20
78.568741
 30
0.0
 10
9.381130
 20
78.591974
 30
0.0
 10
9.392314
 20
78.613112
 30
0.0
  0
SPLINE
  5
11f
100
AcDbEntity
  8
0
 62
7
100
AcDbSpline
 70
8
 71
3
 72
8
 73
4
 74
0
 40
0
 40
0
 40
0
 40
0
 40
1
 40
1
 40
1
 40
1
 10
9.392314
 20
78.613112
 30
0.0
 10
9.404799
 20
78.636755
 30
0.0
 10
9.420754
 20
78.658209
 30
0.0
 10
9.428273
 20
78.684215
 30
0.0
  0
SPLINE
  5
120
100
AcDbEntity
  8
0
 62
7
100
AcDbSpline
 70
8
 71
3
 72
8
 73
4
 74
0
 40
0
 40
0
 40
0
 40
0
 40
1
 40
1
 40
1
 40
1
 10
9.428273
 20
78.684215
 30
0.0
 10
9.435697
 20
78.709790
 30
0.0
 10
9.433260
 20
78.737868
 30
0.0
 10
9.435358
 20
78.765032
 30
0.0
  0
SPLINE
  5
121
100
AcDbEntity
  8
0
 62
7
100
AcDbSpline
 70
8
 71
3
 72
8
 73
4
 74
0
 40
0
 40
0
 40
0
 40
0
 40
1
 40
1
 40
1
 40
1
 10
9.435358
 20
78.765032
 30
0.0
 10
9.437237
 20
78.789424
 30
0.0
 10
9.444571
 20
78.812490
 30
0.0
 10
9.441751
 20
78.837702
 30
0.0
  0
SPLINE
  5
122
100
AcDbEntity
  8
0
 62
7
100
AcDbSpline
 70
8
 71
3
 72
8
 73
4
 74
0
 40
0
 40
0
 40
0
 40
0
 40
1
 40
1
 40
1
 40
1
 10
9.441751
 20
78.837702
 30
0.0
 10
9.441655
 20
78.838601
 30
0.0
 10
9.441036
 20
78.839316
 30
0.0
 10
9.440930
 20
78.840162
 30
0.0
  0
SPLINE
  5
123
100
AcDbEntity
  8
0
 62
7
100
AcDbSpline
 70
8
 71
3
 72
8
 73
4
 74
0
 40
0
 40
0
 40
0
 40
0
 40
1
 40
1
 40
1
 40
1
 10
9.440930
 20
78.840162
 30
0.0
 10
9.440811
 20
78.841194
 30
0.0
 10
9.441274
 20
78.842094
 30
0.0
 10
9.441148
 20
78.843086
 30
0.0
  0
SPLINE
  5
124
100
AcDbEntity
  8
0
 62
7
100
AcDbSpline
 70
8
 71
3
 72
8
 73
4
 74
0
 40
0
 40
0
 40
0
 40
0
 40
1
 40
1
 40
1
 40
1
 10
9.441148
 20
78.843086
 30
0.0
 10
9.434205
 20
78.897462
 30
0.0
 10
9.430927
 20
78.952224
 30
0.0
 10
9.430927
 20
79.010456
 30
0.0
  0
SPLINE
  5
125
100
AcDbEntity
  8
0
 62
7
100
AcDbSpline
 70
8
 71
3
 72
8
 73
4
 74
0
 40
0
 40
0
 40
0
 40
0
 40
1
 40
1
 40
1
 40
1
 10
9.430927
 20
79.010456
 30
0.0
 10
9.430927
 20
79.850775
 30
0.0
 10
10.001488
 20
80.534138
 30
0.0
 10
10.702590
 20
80.534138
 30
0.0
  0
SPLINE
  5
126
100
AcDbEntity
  8
0
 62
7
100
AcDbSpline
 70
8
 71
3
 72
8
 73
4
 74
0
 40
0
 40
0
 40
0
 40
0
 40
1
 40
1
 40
1
 40
1
 10
10.702590
 20
80.534138
 30
0.0
 10
11.361463
 20
80.534138
 30
0.0
 10
11.918527
 20
79.921348
 30
0.0
 10
11.970974
 20
79.138876
 30
0.0
  0
SPLINE
  5
127
100
AcDbEntity
  8
0
 62
7
100
AcDbSpline
 70
8
 71
3
 72
8
 73
4
 74
0
 40
0
 40
0
 40
0
 40
0
 40
1
 40
1
 40
1
 40
1
 10
11.970974
 20
79.138876
 30
0.0
 10
11.971191
 20
79.135756
 30
0.0
 10
11.973038
 20
79.133330
 30
0.0
 10
11.973303
 20
79.130226
 30
0.0
  0
SPLINE
  5
128
100
AcDbEntity
  8
0
 62
7
100
AcDbSpline
 70
8
 71
3
 72
8
 73
4
 74
0
 40
0
 40
0
 40
0
 40
0
 40
1
 40
1
 40
1
 40
1
 10
11.973303
 20
79.130226
 30
0.0
 10
11.973567
 20
79.127107
 30
0.0
 10
11.972192
 20
79.124300
 30
0.0
 10
11.972535
 20
79.121141
 30
0.0
  0
SPLINE
  5
129
100
AcDbEntity
  8
0
 62
7
100
AcDbSpline
 70
8
 71
3
 72
8
 73
4
 74
0
 40
0
 40
0
 40
0
 40
0
 40
1
 40
1
 40
1
 40
1
 10
11.972535
 20
79.121141
 30
0.0
 10
11.976168
 20
79.088554
 30
0.0
 10
11.989331
 20
79.060161
 30
0.0
 10
12.000205
 20
79.030731
 30
0.0
  0
SPLINE
  5
12a
100
AcDbEntity
  8
0
 62
7
100
AcDbSpline
 70
8
 71
3
 72
8
 73
4
 74
0
 40
0
 40
0
 40
0
 40
0
 40
1
 40
1
 40
1
 40
1
 10
12.000205
 20
79.030731
 30
0.0
 10
12.005727
 20
79.015811
 30
0.0
 10
12.007002
 20
78.998989
 30
0.0
 10
12.014210
 20
78.985032
 30
0.0
  0
SPLINE
  5
12b
100
AcDbEntity
  8
0
 62
7
100
AcDbSpline
 70
8
 71
3
 72
8
 73
4
 74
0
 40
0
 40
0
 40
0
 40
0
 40
1
 40
1
 40
1
 40
1
 10
12.014210
 20
78.985032
 30
0.0
 10
12.060149
 20
78.895587
 30
0.0
 10
12.138724
 20
78.828412
 30
0.0
 10
12.232701
 20
78.794789
 30
0.0
  0
SPLINE
  5
12c
100
AcDbEntity
  8
0
 62
7
100
AcDbSpline
 70
8
 71
3
 72
8
 73
4
 74
0
 40
0
 40
0
 40
0
 40
0
 40
1
 40
1
 40
1
 40
1
 10
12.232701
 20
78.794789
 30
0.0
 10
12.238336
 20
78.792778
 30
0.0
 10
12.244826
 20
78.793175
 30
0.0
 10
12.250560
 20
78.791429
 30
0.0
  0
SPLINE
  5
12d
100
AcDbEntity
  8
0
 62
7
100
AcDbSpline
 70
8
 71
3
 72
8
 73
4
 74
0
 40
0
 40
0
 40
0
 40
0
 40
1
 40
1
 40
1
 40
1
 10
12.250560
 20
78.791429
 30
0.0
 10
12.287171
 20
78.780198
 30
0.0
 10
12.324531
 20
78.770196
 30
0.0
 10
12.364349
 20
78.770196
 30
0.0
  0
SPLINE
  5
12e
100
AcDbEntity
  8
0
 62
7
100
AcDbSpline
 70
8
 71
3
 72
8
 73
4
 74
0
 40
0
 40
0
 40
0
 40
0
 40
1
 40
1
 40
1
 40
1
 10
12.364349
 20
78.770196
 30
0.0
 10
12.372204
 20
78.770196
 30
0.0
 10
12.380184
 20
78.771016
 30
0.0
 10
12.388114
 20
78.771413
 30
0.0
  0
SPLINE
  5
12f
100
AcDbEntity
  8
0
 62
7
100
AcDbSpline
 70
8
 71
3
 72
8
 73
4
 74
0
 40
0
 40
0
 40
0
 40
0
 40
1
 40
1
 40
1
 40
1
 10
12.388114
 20
78.771413
 30
0.0
 10
12.389225
 20
78.771462
 30
0.0
 10
12.390204
 20
78.770911
 30
0.0
 10
12.391352
 20
78.770937
 30
0.0
  0
SPLINE
  5
130
100
AcDbEntity
  8
0
 62
7
100
AcDbSpline
 70
8
 71
3
 72
8
 73
4
 74
0
 40
0
 40
0
 40
0
 40
0
 40
1
 40
1
 40
1
 40
1
 10
12.391352
 20
78.770937
 30
0.0
 10
12.392384
 20
78.771010
 30
0.0
 10
12.393231
 20
78.771651
 30
0.0
 10
12.394239
 20
78.771704
 30
0.0
  0
SPLINE
  5
131
100
AcDbEntity
  8
0
 62
7
100
AcDbSpline
 70
8
 71
3
 72
8
 73
4
 74
0
 40
0
 40
0
 40
0
 40
0
 40
1
 40
1
 40
1
 40
1
 10
12.394239
 20
78.771704
 30
0.0
 10
12.399078
 20
78.772048
 30
0.0
 10
12.403854
 20
78.771945
 30
0.0
 10
12.408701
 20
78.772445
 30
0.0
  0
LINE
  5
132
100
AcDbEntity
  8
0
 62
7
100
AcDbLine
 10
12.408701
 20
78.772445
 30
0.0
 11
25.909719
 21
80.279987
 31
0.0
  0
SPLINE
  5
133
100
AcDbEntity
  8
0
 62
7
100
AcDbSpline
 70
8
 71
3
 72
8
 73
4
 74
0
 40
0
 40
0
 40
0
 40
0
 40
1
 40
1
 40
1
 40
1
 10
25.909719
 20
80.279987
 30
0.0
 10
26.109675
 20
80.302355
 30
0.0
 10
26.260848
 20
80.471266
 30
0.0
 10
26.260848
 20
80.672573
 30
0.0
  0
LINE
  5
134
100
AcDbEntity
  8
0
 62
7
100
AcDbLine
 10
26.260848
 20
80.672573
 30
0.0
 11
26.260848
 21
90.919937
 31
0.0
  0
SPLINE
  5
135
100
AcDbEntity
  8
0
 62
7
100
AcDbSpline
 70
8
 71
3
 72
8
 73
4
 74
0
 40
0
 40
0
 40
0
 40
0
 40
1
 40
1
 40
1
 40
1
 10
26.260848
 20
90.919937
 30
0.0
 10
26.260848
 20
90.928975
 30
0.0
 10
26.255932
 20
90.936955
 30
0.0
 10
26.255302
 20
90.945922
 30
0.0
  0
SPLINE
  5
136
100
AcDbEntity
  8
0
 62
7
100
AcDbSpline
 70
8
 71
3
 72
8
 73
4
 74
0
 40
0
 40
0
 40
0
 40
0
 40
1
 40
1
 40
1
 40
1
 10
26.255302
 20
90.945922
 30
0.0
 10
26.254905
 20
90.951848
 30
0.0
 10
26.257472
 20
90.957153
 30
0.0
 10
26.256810
 20
90.963130
 30
0.0
  0
LINE
  5
137
100
AcDbEntity
  8
0
 62
7
100
AcDbLine
 10
26.256810
 20
90.963130
 30
0.0
 11
26.256794
 21
90.963129
 31
0.0
  0
SPLINE
  5
138
100
AcDbEntity
  8
0
 62
7
100
AcDbSpline
 70
8
 71
3
 72
8
 73
4
 74
0
 40
0
 40
0
 40
0
 40
0
 40
1
 40
1
 40
1
 40
1
 10
17.824100
 20
92.987377
 30
0.0
 10
18.782234
 20
92.987377
 30
0.0
 10
19.591701
 20
92.517662
 30
0.0
 10
19.591701
 20
91.961948
 30
0.0
  0
SPLINE
  5
139
100
AcDbEntity
  8
0
 62
7
100
AcDbSpline
 70
8
 71
3
 72
8
 73
4
 74
0
 40
0
 40
0
 40
0
 40
0
 40
1
 40
1
 40
1
 40
1
 10
19.591701
 20
91.961948
 30
0.0
 10
19.591701
 20
91.413176
 30
0.0
 10
18.765651
 20
90.931507
 30
0.0
 10
17.824100
 20
90.931507
 30
0.0
  0
SPLINE
  5
13a
100
AcDbEntity
  8
0
 62
7
100
AcDbSpline
 70
8
 71
3
 72
8
 73
4
 74
0
 40
0
 40
0
 40
0
 40
0
 40
1
 40
1
 40
1
 40
1
 10
17.824100
 20
90.931507
 30
0.0
 10
16.879850
 20
90.931507
 30
0.0
 10
16.051679
 20
91.413176
 30
0.0
 10
16.051679
 20
91.961948
 30
0.0
  0
SPLINE
  5
13b
100
AcDbEntity
  8
0
 62
7
100
AcDbSpline
 70
8
 71
3
 72
8
 73
4
 74
0
 40
0
 40
0
 40
0
 40
0
 40
1
 40
1
 40
1
 40
1
 10
16.051679
 20
91.961948
 30
0.0
 10
16.051679
 20
92.517662
 30
0.0
 10
16.863267
 20
92.987377
 30
0.0
 10
17.824100
 20
92.987377
 30
0.0
  0
LINE
  5
13c
100
AcDbEntity
  8
0
 62
7
100
AcDbLine
 10
17.824100
 20
92.987377
 30
0.0
 11
17.824100
 21
92.987377
 31
0.0
  0
SPLINE
  5
13d
100
AcDbEntity
  8
0
 62
7
100
AcDbSpline
 70
8
 71
3
 72
8
 73
4
 74
0
 40
0
 40
0
 40
0
 40
0
 40
1
 40
1
 40
1
 40
1
 10
22.752058
 20
84.895014
 30
0.0
 10
23.244526
 20
84.895014
 30
0.0
 10
23.645210
 20
84.541378
 30
0.0
 10
23.645210
 20
84.106757
 30
0.0
  0
SPLINE
  5
13e
100
AcDbEntity
  8
0
 62
7
100
AcDbSpline
 70
8
 71
3
 72
8
 73
4
 74
0
 40
0
 40
0
 40
0
 40
0
 40
1
 40
1
 40
1
 40
1
 10
23.645210
 20
84.106757
 30
0.0
 10
23.645210
 20
83.669822
 30
0.0
 10
23.244526
 20
83.314257
 30
0.0
 10
22.752058
 20
83.314257
 30
0.0
  0
SPLINE
  5
13f
100
AcDbEntity
  8
0
 62
7
100
AcDbSpline
 70
8
 71
3
 72
8
 73
4
 74
0
 40
0
 40
0
 40
0
 40
0
 40
1
 40
1
 40
1
 40
1
 10
22.752058
 20
83.314257
 30
0.0
 10
22.258047
 20
83.314257
 30
0.0
 10
21.856206
 20
83.669822
 30
0.0
 10
21.856206
 20
84.106757
 30
0.0
  0
SPLINE
  5
140
100
AcDbEntity
  8
0
 62
7
100
AcDbSpline
 70
8
 71
3
 72
8
 73
4
 74
0
 40
0
 40
0
 40
0
 40
0
 40
1
 40
1
 40
1
 40
1
 10
21.856206
 20
84.106757
 30
0.0
 10
21.856206
 20
84.541378
 30
0.0
 10
22.258047
 20
84.895014
 30
0.0
 10
22.752058
 20
84.895014
 30
0.0
  0
LINE
  5
141
100
AcDbEntity
  8
0
 62
7
100
AcDbLine
 10
22.752058
 20
84.895014
 30
0.0
 11
22.752058
 21
84.895014
 31
0.0
  0
SPLINE
  5
142
100
AcDbEntity
  8
0
 62
7
100
AcDbSpline
 70
8
 71
3
 72
8
 73
4
 74
0
 40
0
 40
0
 40
0
 40
0
 40
1
 40
1
 40
1
 40
1
 10
16.407050
 20
82.561480
 30
0.0
 10
16.969319
 20
82.561480
 30
0.0
 10
17.426694
 20
82.102177
 30
0.0
 10
17.426694
 20
81.537594
 30
0.0
  0
SPLINE
  5
143
100
AcDbEntity
  8
0
 62
7
100
AcDbSpline
 70
8
 71
3
 72
8
 73
4
 74
0
 40
0
 40
0
 40
0
 40
0
 40
1
 40
1
 40
1
 40
1
 10
17.426694
 20
81.537594
 30
0.0
 10
17.426694
 20
80.973396
 30
0.0
 10
16.969319
 20
80.514094
 30
0.0
 10
16.407050
 20
80.514094
 30
0.0
  0
SPLINE
  5
144
100
AcDbEntity
  8
0
 62
7
100
AcDbSpline
 70
8
 71
3
 72
8
 73
4
 74
0
 40
0
 40
0
 40
0
 40
0
 40
1
 40
1
 40
1
 40
1
 10
16.407050
 20
80.514094
 30
0.0
 10
15.844780
 20
80.514094
 30
0.0
 10
15.387213
 20
80.973396
 30
0.0
 10
15.387213
 20
81.537594
 30
0.0
  0
SPLINE
  5
145
100
AcDbEntity
  8
0
 62
7
100
AcDbSpline
 70
8
 71
3
 72
8
 73
4
 74
0
 40
0
 40
0
 40
0
 40
0
 40
1
 40
1
 40
1
 40
1
 10
15.387213
 20
81.537594
 30
0.0
 10
15.387213
 20
82.102177
 30
0.0
 10
15.844780
 20
82.561480
 30
0.0
 10
16.407050
 20
82.561480
 30
0.0
  0
LINE
  5
146
100
AcDbEntity
  8
0
 62
7
100
AcDbLine
 10
16.407050
 20
82.561480
 30
0.0
 11
16.407050
 21
82.561480
 31
0.0
  0
ENDSEC
  0
SECTION
  2
OBJECTS
  0
DICTIONARY
  5
C
330
0
100
AcDbDictionary
  3
ACAD_GROUP
350
D
  3
ACAD_MLINESTYLE
350
17
  0
DICTIONARY
  5
D
330
C
100
AcDbDictionary
  0
DICTIONARY
  5
1A
330
C
100
AcDbDictionary
  0
DICTIONARY
  5
17
330
C
100
AcDbDictionary
  3
STANDARD
350
18
  0
DICTIONARY
  5
19
330
C
100
AcDbDictionary
  0
ENDSEC
  0
EOF
