  0
SECTION
  2
HEADER
  9
$ACADVER
  1
AC1014
  9
$HANDSEED
  5
FFFF
  9
$MEASUREMENT
 70
     1
  0
ENDSEC
  0
SECTION
  2
TABLES
  0
TABLE
  2
VPORT
  5
8
330
0
100
AcDbSymbolTable
 70
     4
  0
VPORT
  5
2E
330
8
100
AcDbSymbolTableRecord
100
AcDbViewportTableRecord
  2
*ACTIVE
 70
     0
 10
0.0
 20
0.0
 11
1.0
 21
1.0
 12
210.0
 22
148.5
 13
0.0
 23
0.0
 14
10.0
 24
10.0
 15
10.0
 25
10.0
 16
0.0
 26
0.0
 36
1.0
 17
0.0
 27
0.0
 37
0.0
 40
341.0
 41
1.24
 42
50.0
 43
0.0
 44
0.0
 50
0.0
 51
0.0
 71
     0
 72
   100
 73
     1
 74
     3
 75
     0
 76
     0
 77
     0
 78
     0
  0
ENDTAB
  0
TABLE
  2
LTYPE
  5
5
330
0
100
AcDbSymbolTable
 70
     1
  0
LTYPE
  5
14
330
5
100
AcDbSymbolTableRecord
100
AcDbLinetypeTableRecord
  2
BYBLOCK
 70
     0
  3

 72
    65
 73
     0
 40
0.0
  0
LTYPE
  5
15
330
5
100
AcDbSymbolTableRecord
100
AcDbLinetypeTableRecord
  2
BYLAYER
 70
     0
  3

 72
    65
 73
     0
 40
0.0
  0
LTYPE
  5
16
330
5
100
AcDbSymbolTableRecord
100
AcDbLinetypeTableRecord
  2
CONTINUOUS
 70
     0
  3
Solid line
 72
    65
 73
     0
 40
0.0
  0
ENDTAB
  0
TABLE
  2
LAYER
  5
2
100
AcDbSymbolTable
 70
1
  0
LAYER
  5
50
100
AcDbSymbolTableRecord
100
AcDbLayerTableRecord
  2
0
 70
0
  6
CONTINUOUS
  0
ENDTAB
  0
TABLE
  2
STYLE
  5
3
330
0
100
AcDbSymbolTable
 70
     1
  0
STYLE
  5
11
330
3
100
AcDbSymbolTableRecord
100
AcDbTextStyleTableRecord
  2
STANDARD
 70
     0
 40
0.0
 41
1.0
 50
0.0
 71
     0
 42
2.5
  3
txt
  4

  0
ENDTAB
  0
TABLE
  2
VIEW
  5
6
330
0
100
AcDbSymbolTable
 70
     0
  0
ENDTAB
  0
TABLE
  2
UCS
  5
7
330
0
100
AcDbSymbolTable
 70
     0
  0
ENDTAB
  0
TABLE
  2
APPID
  5
9
330
0
100
AcDbSymbolTable
 70
     2
  0
APPID
  5
12
330
9
100
AcDbSymbolTableRecord
100
AcDbRegAppTableRecord
  2
ACAD
 70
     0
  0
ENDTAB
  0
TABLE
  2
DIMSTYLE
  5
A
330
0
100
AcDbSymbolTable
 70
     1
  0
DIMSTYLE
105
27
330
A
100
AcDbSymbolTableRecord
100
AcDbDimStyleTableRecord
  2
ISO-25
 70
     0
  3

  4

  5

  6

  7

 40
1.0
 41
2.5
 42
0.625
 43
3.75
 44
1.25
 45
0.0
 46
0.0
 47
0.0
 48
0.0
140
2.5
141
2.5
142
0.0
143
0.03937007874016
144
1.0
145
0.0
146
1.0
147
0.625
 71
     0
 72
     0
 73
     0
 74
     0
 75
     0
 76
     0
 77
     1
 78
     8
170
     0
171
     3
172
     1
173
     0
174
     0
175
     0
176
     0
177
     0
178
     0
270
     2
271
     2
272
     2
273
     2
274
     3
340
11
275
     0
280
     0
281
     0
282
     0
283
     0
284
     8
285
     0
286
     0
287
     3
288
     0
  0
ENDTAB
  0
TABLE
  2
BLOCK_RECORD
  5
1
330
0
100
AcDbSymbolTable
 70
     1
  0
BLOCK_RECORD
  5
1F
330
1
100
AcDbSymbolTableRecord
100
AcDbBlockTableRecord
  2
*MODEL_SPACE
  0
BLOCK_RECORD
  5
1B
330
1
100
AcDbSymbolTableRecord
100
AcDbBlockTableRecord
  2
*PAPER_SPACE
  0
ENDTAB
  0
ENDSEC
  0
SECTION
  2
BLOCKS
  0
BLOCK
  5
20
330
1F
100
AcDbEntity
  8
0
100
AcDbBlockBegin
  2
*MODEL_SPACE
 70
     0
 10
0.0
 20
0.0
 30
0.0
  3
*MODEL_SPACE
  1

  0
ENDBLK
  5
21
330
1F
100
AcDbEntity
  8
0
100
AcDbBlockEnd
  0
BLOCK
  5
1C
330
1B
100
AcDbEntity
 67
     1
  8
0
100
AcDbBlockBegin
  2
*PAPER_SPACE
  1

  0
ENDBLK
  5
1D
330
1B
100
AcDbEntity
 67
     1
  8
0
100
AcDbBlockEnd
  0
ENDSEC
  0
SECTION
  2
ENTITIES
  0
SPLINE
  5
100
100
AcDbEntity
  8
0
 62
7
100
AcDbSpline
 70
8
 71
3
 72
8
 73
4
 74
0
 40
0
 40
0
 40
0
 40
0
 40
1
 40
1
 40
1
 40
1
 10
33.797782
 20
61.498622
 30
0.0
 10
36.456364
 20
61.498622
 30
0.0
 10
38.618646
 20
58.918751
 30
0.0
 10
38.618646
 20
55.748568
 30
0.0
  0
SPLINE
  5
101
100
AcDbEntity
  8
0
 62
7
100
AcDbSpline
 70
8
 71
3
 72
8
 73
4
 74
0
 40
0
 40
0
 40
0
 40
0
 40
1
 40
1
 40
1
 40
1
 10
38.618646
 20
55.748568
 30
0.0
 10
38.618646
 20
52.578386
 30
0.0
 10
36.456364
 20
49.999972
 30
0.0
 10
33.797782
 20
49.999972
 30
0.0
  0
SPLINE
  5
102
100
AcDbEntity
  8
0
 62
7
100
AcDbSpline
 70
8
 71
3
 72
8
 73
4
 74
0
 40
0
 40
0
 40
0
 40
0
 40
1
 40
1
 40
1
 40
1
 10
33.797782
 20
49.999972
 30
0.0
 10
31.139202
 20
49.999972
 30
0.0
 10
28.976190
 20
52.578386
 30
0.0
 10
28.976190
 20
55.748568
 30
0.0
  0
SPLINE
  5
103
100
AcDbEntity
  8
0
 62
7
100
AcDbSpline
 70
8
 71
3
 72
8
 73
4
 74
0
 40
0
 40
0
 40
0
 40
0
 40
1
 40
1
 40
1
 40
1
 10
28.976190
 20
55.748568
 30
0.0
 10
28.976190
 20
58.918748
 30
0.0
 10
31.139202
 20
61.498622
 30
0.0
 10
33.797782
 20
61.498622
 30
0.0
  0
LINE
  5
104
100
AcDbEntity
  8
0
 62
7
100
AcDbLine
 10
33.797782
 20
61.498622
 30
0.0
 11
33.797782
 21
61.498622
 31
0.0
  0
SPLINE
  5
105
100
AcDbEntity
  8
0
 62
7
100
AcDbSpline
 70
8
 71
3
 72
8
 73
4
 74
0
 40
0
 40
0
 40
0
 40
0
 40
1
 40
1
 40
1
 40
1
 10
99.238352
 20
65.845051
 30
0.0
 10
95.512842
 20
98.884905
 30
0.0
 10
59.924454
 20
99.253666
 30
0.0
 10
59.547677
 20
99.253666
 30
0.0
  0
SPLINE
  5
106
100
AcDbEntity
  8
0
 62
7
100
AcDbSpline
 70
8
 71
3
 72
8
 73
4
 74
0
 40
0
 40
0
 40
0
 40
0
 40
1
 40
1
 40
1
 40
1
 10
59.547677
 20
99.253666
 30
0.0
 10
59.226285
 20
99.253666
 30
0.0
 10
58.913640
 20
99.150180
 30
0.0
 10
58.655653
 20
98.957783
 30
0.0
  0
LINE
  5
107
100
AcDbEntity
  8
0
 62
7
100
AcDbLine
 10
58.655653
 20
98.957783
 30
0.0
 11
1.351883
 21
56.200410
 31
0.0
  0
SPLINE
  5
108
100
AcDbEntity
  8
0
 62
7
100
AcDbSpline
 70
8
 71
3
 72
8
 73
4
 74
0
 40
0
 40
0
 40
0
 40
0
 40
1
 40
1
 40
1
 40
1
 10
1.351883
 20
56.200410
 30
0.0
 10
1.321729
 20
56.177894
 30
0.0
 10
1.307610
 20
56.144109
 30
0.0
 10
1.279734
 20
56.119868
 30
0.0
  0
SPLINE
  5
109
100
AcDbEntity
  8
0
 62
7
100
AcDbSpline
 70
8
 71
3
 72
8
 73
4
 74
0
 40
0
 40
0
 40
0
 40
0
 40
1
 40
1
 40
1
 40
1
 10
1.279734
 20
56.119868
 30
0.0
 10
1.181804
 20
56.035419
 30
0.0
 10
1.098906
 20
55.942957
 30
0.0
 10
1.025755
 20
55.836285
 30
0.0
  0
SPLINE
  5
10a
100
AcDbEntity
  8
0
 62
7
100
AcDbSpline
 70
8
 71
3
 72
8
 73
4
 74
0
 40
0
 40
0
 40
0
 40
0
 40
1
 40
1
 40
1
 40
1
 10
1.025755
 20
55.836285
 30
0.0
 10
0.989680
 20
55.783446
 30
0.0
 10
0.956430
 20
55.732791
 30
0.0
 10
0.927734
 20
55.676408
 30
0.0
  0
SPLINE
  5
10b
100
AcDbEntity
  8
0
 62
7
100
AcDbSpline
 70
8
 71
3
 72
8
 73
4
 74
0
 40
0
 40
0
 40
0
 40
0
 40
1
 40
1
 40
1
 40
1
 10
0.927734
 20
55.676408
 30
0.0
 10
0.871891
 20
55.567916
 30
0.0
 10
0.835725
 20
55.454680
 30
0.0
 10
0.807669
 20
55.333247
 30
0.0
  0
SPLINE
  5
10c
100
AcDbEntity
  8
0
 62
7
100
AcDbSpline
 70
8
 71
3
 72
8
 73
4
 74
0
 40
0
 40
0
 40
0
 40
0
 40
1
 40
1
 40
1
 40
1
 10
0.807669
 20
55.333247
 30
0.0
 10
0.792728
 20
55.268117
 30
0.0
 10
0.777606
 20
55.206440
 30
0.0
 10
0.771503
 20
55.139847
 30
0.0
  0
SPLINE
  5
10d
100
AcDbEntity
  8
0
 62
7
100
AcDbSpline
 70
8
 71
3
 72
8
 73
4
 74
0
 40
0
 40
0
 40
0
 40
0
 40
1
 40
1
 40
1
 40
1
 10
0.771503
 20
55.139847
 30
0.0
 10
0.767130
 20
55.093577
 30
0.0
 10
0.746269
 20
55.052487
 30
0.0
 10
0.746269
 20
55.005211
 30
0.0
  0
LINE
  5
10e
100
AcDbEntity
  8
0
 62
7
100
AcDbLine
 10
0.746269
 20
55.005211
 30
0.0
 11
0.746269
 21
43.242746
 31
0.0
  0
SPLINE
  5
10f
100
AcDbEntity
  8
0
 62
7
100
AcDbSpline
 70
8
 71
3
 72
8
 73
4
 74
0
 40
0
 40
0
 40
0
 40
0
 40
1
 40
1
 40
1
 40
1
 10
0.746269
 20
43.242746
 30
0.0
 10
0.746269
 20
42.417768
 30
0.0
 10
1.414558
 20
41.750209
 30
0.0
 10
2.238805
 20
41.750209
 30
0.0
  0
SPLINE
  5
110
100
AcDbEntity
  8
0
 62
7
100
AcDbSpline
 70
8
 71
3
 72
8
 73
4
 74
0
 40
0
 40
0
 40
0
 40
0
 40
1
 40
1
 40
1
 40
1
 10
2.238805
 20
41.750209
 30
0.0
 10
4.898114
 20
41.750209
 30
0.0
 10
7.061854
 20
39.174708
 30
0.0
 10
7.061854
 20
36.007442
 30
0.0
  0
SPLINE
  5
111
100
AcDbEntity
  8
0
 62
7
100
AcDbSpline
 70
8
 71
3
 72
8
 73
4
 74
0
 40
0
 40
0
 40
0
 40
0
 40
1
 40
1
 40
1
 40
1
 10
7.061854
 20
36.007442
 30
0.0
 10
7.061854
 20
32.831430
 30
0.0
 10
4.898114
 20
30.248644
 30
0.0
 10
2.238805
 20
30.248644
 30
0.0
  0
SPLINE
  5
112
100
AcDbEntity
  8
0
 62
7
100
AcDbSpline
 70
8
 71
3
 72
8
 73
4
 74
0
 40
0
 40
0
 40
0
 40
0
 40
1
 40
1
 40
1
 40
1
 10
2.238805
 20
30.248644
 30
0.0
 10
1.414558
 20
30.248644
 30
0.0
 10
0.746269
 20
29.581082
 30
0.0
 10
0.746269
 20
28.756106
 30
0.0
  0
LINE
  5
113
100
AcDbEntity
  8
0
 62
7
100
AcDbLine
 10
0.746269
 20
28.756106
 30
0.0
 11
0.746269
 21
16.275065
 31
0.0
  0
SPLINE
  5
114
100
AcDbEntity
  8
0
 62
7
100
AcDbSpline
 70
8
 71
3
 72
8
 73
4
 74
0
 40
0
 40
0
 40
0
 40
0
 40
1
 40
1
 40
1
 40
1
 10
0.746269
 20
16.275065
 30
0.0
 10
0.746269
 20
15.850917
 30
0.0
 10
0.927006
 20
15.445716
 30
0.0
 10
1.244024
 20
15.162950
 30
0.0
  0
SPLINE
  5
115
100
AcDbEntity
  8
0
 62
7
100
AcDbSpline
 70
8
 71
3
 72
8
 73
4
 74
0
 40
0
 40
0
 40
0
 40
0
 40
1
 40
1
 40
1
 40
1
 10
1.244024
 20
15.162950
 30
0.0
 10
1.518773
 20
14.916623
 30
0.0
 10
1.873688
 20
14.782527
 30
0.0
 10
2.238805
 20
14.782527
 30
0.0
  0
SPLINE
  5
116
100
AcDbEntity
  8
0
 62
7
100
AcDbSpline
 70
8
 71
3
 72
8
 73
4
 74
0
 40
0
 40
0
 40
0
 40
0
 40
1
 40
1
 40
1
 40
1
 10
2.238805
 20
14.782527
 30
0.0
 10
2.294192
 20
14.782527
 30
0.0
 10
2.349580
 20
14.785517
 30
0.0
 10
2.404967
 20
14.791338
 30
0.0
  0
LINE
  5
117
100
AcDbEntity
  8
0
 62
7
100
AcDbLine
 10
2.404967
 20
14.791338
 30
0.0
 11
34.368416
 21
18.366658
 31
0.0
  0
SPLINE
  5
118
100
AcDbEntity
  8
0
 62
7
100
AcDbSpline
 70
8
 71
3
 72
8
 73
4
 74
0
 40
0
 40
0
 40
0
 40
0
 40
1
 40
1
 40
1
 40
1
 10
34.368416
 20
18.366658
 30
0.0
 10
34.370797
 20
18.366923
 30
0.0
 10
34.372623
 20
18.368510
 30
0.0
 10
34.375004
 20
18.368775
 30
0.0
  0
SPLINE
  5
119
100
AcDbEntity
  8
0
 62
7
100
AcDbSpline
 70
8
 71
3
 72
8
 73
4
 74
0
 40
0
 40
0
 40
0
 40
0
 40
1
 40
1
 40
1
 40
1
 10
34.375004
 20
18.368775
 30
0.0
 10
34.379291
 20
18.369304
 30
0.0
 10
34.383815
 20
18.369040
 30
0.0
 10
34.388128
 20
18.369569
 30
0.0
  0
SPLINE
  5
11a
100
AcDbEntity
  8
0
 62
7
100
AcDbSpline
 70
8
 71
3
 72
8
 73
4
 74
0
 40
0
 40
0
 40
0
 40
0
 40
1
 40
1
 40
1
 40
1
 10
34.388128
 20
18.369569
 30
0.0
 10
34.469847
 20
18.379861
 30
0.0
 10
34.536067
 20
18.422591
 30
0.0
 10
34.612592
 20
18.445179
 30
0.0
  0
SPLINE
  5
11b
100
AcDbEntity
  8
0
 62
7
100
AcDbSpline
 70
8
 71
3
 72
8
 73
4
 74
0
 40
0
 40
0
 40
0
 40
0
 40
1
 40
1
 40
1
 40
1
 10
34.612592
 20
18.445179
 30
0.0
 10
34.725098
 20
18.478339
 30
0.0
 10
34.843250
 20
18.499281
 30
0.0
 10
34.942181
 20
18.556047
 30
0.0
  0
SPLINE
  5
11c
100
AcDbEntity
  8
0
 62
7
100
AcDbSpline
 70
8
 71
3
 72
8
 73
4
 74
0
 40
0
 40
0
 40
0
 40
0
 40
1
 40
1
 40
1
 40
1
 10
34.942181
 20
18.556047
 30
0.0
 10
35.014060
 20
18.597227
 30
0.0
 10
35.064524
 20
18.662359
 30
0.0
 10
35.128019
 20
18.714281
 30
0.0
  0
SPLINE
  5
11d
100
AcDbEntity
  8
0
 62
7
100
AcDbSpline
 70
8
 71
3
 72
8
 73
4
 74
0
 40
0
 40
0
 40
0
 40
0
 40
1
 40
1
 40
1
 40
1
 10
35.128019
 20
18.714281
 30
0.0
 10
35.212918
 20
18.783879
 30
0.0
 10
35.306385
 20
18.843281
 30
0.0
 10
35.373888
 20
18.929181
 30
0.0
  0
SPLINE
  5
11e
100
AcDbEntity
  8
0
 62
7
100
AcDbSpline
 70
8
 71
3
 72
8
 73
4
 74
0
 40
0
 40
0
 40
0
 40
0
 40
1
 40
1
 40
1
 40
1
 10
35.373888
 20
18.929181
 30
0.0
 10
35.429548
 20
19.000060
 30
0.0
 10
35.456250
 20
19.087870
 30
0.0
 10
35.498517
 20
19.167763
 30
0.0
  0
SPLINE
  5
11f
100
AcDbEntity
  8
0
 62
7
100
AcDbSpline
 70
8
 71
3
 72
8
 73
4
 74
0
 40
0
 40
0
 40
0
 40
0
 40
1
 40
1
 40
1
 40
1
 10
35.498517
 20
19.167763
 30
0.0
 10
35.545705
 20
19.257123
 30
0.0
 10
35.606009
 20
19.338205
 30
0.0
 10
35.634425
 20
19.436498
 30
0.0
  0
SPLINE
  5
120
100
AcDbEntity
  8
0
 62
7
100
AcDbSpline
 70
8
 71
3
 72
8
 73
4
 74
0
 40
0
 40
0
 40
0
 40
0
 40
1
 40
1
 40
1
 40
1
 10
35.634425
 20
19.436498
 30
0.0
 10
35.662484
 20
19.533158
 30
0.0
 10
35.653264
 20
19.639282
 30
0.0
 10
35.661207
 20
19.741948
 30
0.0
  0
SPLINE
  5
121
100
AcDbEntity
  8
0
 62
7
100
AcDbSpline
 70
8
 71
3
 72
8
 73
4
 74
0
 40
0
 40
0
 40
0
 40
0
 40
1
 40
1
 40
1
 40
1
 10
35.661207
 20
19.741948
 30
0.0
 10
35.668218
 20
19.834137
 30
0.0
 10
35.696015
 20
19.921320
 30
0.0
 10
35.685363
 20
20.016607
 30
0.0
  0
SPLINE
  5
122
100
AcDbEntity
  8
0
 62
7
100
AcDbSpline
 70
8
 71
3
 72
8
 73
4
 74
0
 40
0
 40
0
 40
0
 40
0
 40
1
 40
1
 40
1
 40
1
 10
35.685363
 20
20.016607
 30
0.0
 10
35.685098
 20
20.020020
 30
0.0
 10
35.682664
 20
20.022613
 30
0.0
 10
35.682373
 20
20.025894
 30
0.0
  0
SPLINE
  5
123
100
AcDbEntity
  8
0
 62
7
100
AcDbSpline
 70
8
 71
3
 72
8
 73
4
 74
0
 40
0
 40
0
 40
0
 40
0
 40
1
 40
1
 40
1
 40
1
 10
35.682373
 20
20.025894
 30
0.0
 10
35.681844
 20
20.029783
 30
0.0
 10
35.683696
 20
20.033196
 30
0.0
 10
35.683167
 20
20.036953
 30
0.0
  0
SPLINE
  5
124
100
AcDbEntity
  8
0
 62
7
100
AcDbSpline
 70
8
 71
3
 72
8
 73
4
 74
0
 40
0
 40
0
 40
0
 40
0
 40
1
 40
1
 40
1
 40
1
 10
35.683167
 20
20.036953
 30
0.0
 10
35.656920
 20
20.242471
 30
0.0
 10
35.644535
 20
20.449441
 30
0.0
 10
35.644535
 20
20.669532
 30
0.0
  0
SPLINE
  5
125
100
AcDbEntity
  8
0
 62
7
100
AcDbSpline
 70
8
 71
3
 72
8
 73
4
 74
0
 40
0
 40
0
 40
0
 40
0
 40
1
 40
1
 40
1
 40
1
 10
35.644535
 20
20.669532
 30
0.0
 10
35.644535
 20
23.845543
 30
0.0
 10
37.800988
 20
26.428333
 30
0.0
 10
40.450823
 20
26.428333
 30
0.0
  0
SPLINE
  5
126
100
AcDbEntity
  8
0
 62
7
100
AcDbSpline
 70
8
 71
3
 72
8
 73
4
 74
0
 40
0
 40
0
 40
0
 40
0
 40
1
 40
1
 40
1
 40
1
 10
40.450823
 20
26.428333
 30
0.0
 10
42.941056
 20
26.428333
 30
0.0
 10
45.046493
 20
24.112277
 30
0.0
 10
45.244721
 20
21.154899
 30
0.0
  0
SPLINE
  5
127
100
AcDbEntity
  8
0
 62
7
100
AcDbSpline
 70
8
 71
3
 72
8
 73
4
 74
0
 40
0
 40
0
 40
0
 40
0
 40
1
 40
1
 40
1
 40
1
 10
45.244721
 20
21.154899
 30
0.0
 10
45.245515
 20
21.143099
 30
0.0
 10
45.252526
 20
21.133944
 30
0.0
 10
45.253532
 20
21.122199
 30
0.0
  0
SPLINE
  5
128
100
AcDbEntity
  8
0
 62
7
100
AcDbSpline
 70
8
 71
3
 72
8
 73
4
 74
0
 40
0
 40
0
 40
0
 40
0
 40
1
 40
1
 40
1
 40
1
 10
45.253532
 20
21.122199
 30
0.0
 10
45.254590
 20
21.110399
 30
0.0
 10
45.249245
 20
21.099789
 30
0.0
 10
45.250542
 20
21.087859
 30
0.0
  0
SPLINE
  5
129
100
AcDbEntity
  8
0
 62
7
100
AcDbSpline
 70
8
 71
3
 72
8
 73
4
 74
0
 40
0
 40
0
 40
0
 40
0
 40
1
 40
1
 40
1
 40
1
 10
45.250542
 20
21.087859
 30
0.0
 10
45.264274
 20
20.964696
 30
0.0
 10
45.314031
 20
20.857383
 30
0.0
 10
45.355124
 20
20.746153
 30
0.0
  0
SPLINE
  5
12a
100
AcDbEntity
  8
0
 62
7
100
AcDbSpline
 70
8
 71
3
 72
8
 73
4
 74
0
 40
0
 40
0
 40
0
 40
0
 40
1
 40
1
 40
1
 40
1
 10
45.355124
 20
20.746153
 30
0.0
 10
45.375999
 20
20.689765
 30
0.0
 10
45.380815
 20
20.626183
 30
0.0
 10
45.408053
 20
20.573433
 30
0.0
  0
SPLINE
  5
12b
100
AcDbEntity
  8
0
 62
7
100
AcDbSpline
 70
8
 71
3
 72
8
 73
4
 74
0
 40
0
 40
0
 40
0
 40
0
 40
1
 40
1
 40
1
 40
1
 10
45.408053
 20
20.573433
 30
0.0
 10
45.581686
 20
20.235372
 30
0.0
 10
45.878660
 20
19.981483
 30
0.0
 10
46.233849
 20
19.854404
 30
0.0
  0
SPLINE
  5
12c
100
AcDbEntity
  8
0
 62
7
100
AcDbSpline
 70
8
 71
3
 72
8
 73
4
 74
0
 40
0
 40
0
 40
0
 40
0
 40
1
 40
1
 40
1
 40
1
 10
46.233849
 20
19.854404
 30
0.0
 10
46.255148
 20
19.846811
 30
0.0
 10
46.279667
 20
19.848398
 30
0.0
 10
46.301358
 20
19.841704
 30
0.0
  0
SPLINE
  5
12d
100
AcDbEntity
  8
0
 62
7
100
AcDbSpline
 70
8
 71
3
 72
8
 73
4
 74
0
 40
0
 40
0
 40
0
 40
0
 40
1
 40
1
 40
1
 40
1
 10
46.301358
 20
19.841704
 30
0.0
 10
46.439732
 20
19.799254
 30
0.0
 10
46.580935
 20
19.761456
 30
0.0
 10
46.731427
 20
19.761456
 30
0.0
  0
SPLINE
  5
12e
100
AcDbEntity
  8
0
 62
7
100
AcDbSpline
 70
8
 71
3
 72
8
 73
4
 74
0
 40
0
 40
0
 40
0
 40
0
 40
1
 40
1
 40
1
 40
1
 10
46.731427
 20
19.761456
 30
0.0
 10
46.761129
 20
19.761456
 30
0.0
 10
46.791278
 20
19.764446
 30
0.0
 10
46.821248
 20
19.766060
 30
0.0
  0
SPLINE
  5
12f
100
AcDbEntity
  8
0
 62
7
100
AcDbSpline
 70
8
 71
3
 72
8
 73
4
 74
0
 40
0
 40
0
 40
0
 40
0
 40
1
 40
1
 40
1
 40
1
 10
46.821248
 20
19.766060
 30
0.0
 10
46.825534
 20
19.766242
 30
0.0
 10
46.829159
 20
19.764208
 30
0.0
 10
46.833498
 20
19.764208
 30
0.0
  0
SPLINE
  5
130
100
AcDbEntity
  8
0
 62
7
100
AcDbSpline
 70
8
 71
3
 72
8
 73
4
 74
0
 40
0
 40
0
 40
0
 40
0
 40
1
 40
1
 40
1
 40
1
 10
46.833498
 20
19.764208
 30
0.0
 10
46.837387
 20
19.764472
 30
0.0
 10
46.840509
 20
19.766906
 30
0.0
 10
46.844399
 20
19.767197
 30
0.0
  0
SPLINE
  5
131
100
AcDbEntity
  8
0
 62
7
100
AcDbSpline
 70
8
 71
3
 72
8
 73
4
 74
0
 40
0
 40
0
 40
0
 40
0
 40
1
 40
1
 40
1
 40
1
 10
46.844399
 20
19.767197
 30
0.0
 10
46.862708
 20
19.768520
 30
0.0
 10
46.880739
 20
19.767991
 30
0.0
 10
46.899059
 20
19.770002
 30
0.0
  0
LINE
  5
132
100
AcDbEntity
  8
0
 62
7
100
AcDbLine
 10
46.899059
 20
19.770002
 30
0.0
 11
97.926565
 21
25.467800
 31
0.0
  0
SPLINE
  5
133
100
AcDbEntity
  8
0
 62
7
100
AcDbSpline
 70
8
 71
3
 72
8
 73
4
 74
0
 40
0
 40
0
 40
0
 40
0
 40
1
 40
1
 40
1
 40
1
 10
97.926565
 20
25.467800
 30
0.0
 10
98.682304
 20
25.552340
 30
0.0
 10
99.253666
 20
26.190748
 30
0.0
 10
99.253666
 20
26.951593
 30
0.0
  0
LINE
  5
134
100
AcDbEntity
  8
0
 62
7
100
AcDbLine
 10
99.253666
 20
26.951593
 30
0.0
 11
99.253666
 21
65.681806
 31
0.0
  0
SPLINE
  5
135
100
AcDbEntity
  8
0
 62
7
100
AcDbSpline
 70
8
 71
3
 72
8
 73
4
 74
0
 40
0
 40
0
 40
0
 40
0
 40
1
 40
1
 40
1
 40
1
 10
99.253666
 20
65.681806
 30
0.0
 10
99.253666
 20
65.715966
 30
0.0
 10
99.235093
 20
65.746115
 30
0.0
 10
99.232711
 20
65.780014
 30
0.0
  0
SPLINE
  5
136
100
AcDbEntity
  8
0
 62
7
100
AcDbSpline
 70
8
 71
3
 72
8
 73
4
 74
0
 40
0
 40
0
 40
0
 40
0
 40
1
 40
1
 40
1
 40
1
 10
99.232711
 20
65.780014
 30
0.0
 10
99.231124
 20
65.802424
 30
0.0
 10
99.240914
 20
65.822466
 30
0.0
 10
99.238400
 20
65.845054
 30
0.0
  0
LINE
  5
137
100
AcDbEntity
  8
0
 62
7
100
AcDbLine
 10
99.238400
 20
65.845054
 30
0.0
 11
99.238352
 21
65.845051
 31
0.0
  0
SPLINE
  5
138
100
AcDbEntity
  8
0
 62
7
100
AcDbSpline
 70
8
 71
3
 72
8
 73
4
 74
0
 40
0
 40
0
 40
0
 40
0
 40
1
 40
1
 40
1
 40
1
 10
67.366728
 20
73.495756
 30
0.0
 10
70.988025
 20
73.495756
 30
0.0
 10
74.047432
 20
71.720454
 30
0.0
 10
74.047432
 20
69.620118
 30
0.0
  0
SPLINE
  5
139
100
AcDbEntity
  8
0
 62
7
100
AcDbSpline
 70
8
 71
3
 72
8
 73
4
 74
0
 40
0
 40
0
 40
0
 40
0
 40
1
 40
1
 40
1
 40
1
 10
74.047432
 20
69.620118
 30
0.0
 10
74.047432
 20
67.546017
 30
0.0
 10
70.925351
 20
65.725531
 30
0.0
 10
67.366728
 20
65.725531
 30
0.0
  0
SPLINE
  5
13a
100
AcDbEntity
  8
0
 62
7
100
AcDbSpline
 70
8
 71
3
 72
8
 73
4
 74
0
 40
0
 40
0
 40
0
 40
0
 40
1
 40
1
 40
1
 40
1
 10
67.366728
 20
65.725531
 30
0.0
 10
63.797906
 20
65.725531
 30
0.0
 10
60.667808
 20
67.546017
 30
0.0
 10
60.667808
 20
69.620118
 30
0.0
  0
SPLINE
  5
13b
100
AcDbEntity
  8
0
 62
7
100
AcDbSpline
 70
8
 71
3
 72
8
 73
4
 74
0
 40
0
 40
0
 40
0
 40
0
 40
1
 40
1
 40
1
 40
1
 10
60.667808
 20
69.620118
 30
0.0
 10
60.667808
 20
71.720454
 30
0.0
 10
63.735232
 20
73.495756
 30
0.0
 10
67.366728
 20
73.495756
 30
0.0
  0
LINE
  5
13c
100
AcDbEntity
  8
0
 62
7
100
AcDbLine
 10
67.366728
 20
73.495756
 30
0.0
 11
67.366728
 21
73.495756
 31
0.0
  0
SPLINE
  5
13d
100
AcDbEntity
  8
0
 62
7
100
AcDbSpline
 70
8
 71
3
 72
8
 73
4
 74
0
 40
0
 40
0
 40
0
 40
0
 40
1
 40
1
 40
1
 40
1
 10
85.992094
 20
42.910424
 30
0.0
 10
87.853392
 20
42.910424
 30
0.0
 10
89.367792
 20
41.573848
 30
0.0
 10
89.367792
 20
39.931183
 30
0.0
  0
SPLINE
  5
13e
100
AcDbEntity
  8
0
 62
7
100
AcDbSpline
 70
8
 71
3
 72
8
 73
4
 74
0
 40
0
 40
0
 40
0
 40
0
 40
1
 40
1
 40
1
 40
1
 10
89.367792
 20
39.931183
 30
0.0
 10
89.367792
 20
38.279774
 30
0.0
 10
87.853392
 20
36.935906
 30
0.0
 10
85.992094
 20
36.935906
 30
0.0
  0
SPLINE
  5
13f
100
AcDbEntity
  8
0
 62
7
100
AcDbSpline
 70
8
 71
3
 72
8
 73
4
 74
0
 40
0
 40
0
 40
0
 40
0
 40
1
 40
1
 40
1
 40
1
 10
85.992094
 20
36.935906
 30
0.0
 10
84.124965
 20
36.935906
 30
0.0
 10
82.606194
 20
38.279774
 30
0.0
 10
82.606194
 20
39.931183
 30
0.0
  0
SPLINE
  5
140
100
AcDbEntity
  8
0
 62
7
100
AcDbSpline
 70
8
 71
3
 72
8
 73
4
 74
0
 40
0
 40
0
 40
0
 40
0
 40
1
 40
1
 40
1
 40
1
 10
82.606194
 20
39.931183
 30
0.0
 10
82.606194
 20
41.573848
 30
0.0
 10
84.124965
 20
42.910424
 30
0.0
 10
85.992094
 20
42.910424
 30
0.0
  0
LINE
  5
141
100
AcDbEntity
  8
0
 62
7
100
AcDbLine
 10
85.992094
 20
42.910424
 30
0.0
 11
85.992094
 21
42.910424
 31
0.0
  0
SPLINE
  5
142
100
AcDbEntity
  8
0
 62
7
100
AcDbSpline
 70
8
 71
3
 72
8
 73
4
 74
0
 40
0
 40
0
 40
0
 40
0
 40
1
 40
1
 40
1
 40
1
 10
62.010943
 20
34.090762
 30
0.0
 10
64.136057
 20
34.090762
 30
0.0
 10
65.864719
 20
32.354813
 30
0.0
 10
65.864719
 20
30.220952
 30
0.0
  0
SPLINE
  5
143
100
AcDbEntity
  8
0
 62
7
100
AcDbSpline
 70
8
 71
3
 72
8
 73
4
 74
0
 40
0
 40
0
 40
0
 40
0
 40
1
 40
1
 40
1
 40
1
 10
65.864719
 20
30.220952
 30
0.0
 10
65.864719
 20
28.088550
 30
0.0
 10
64.136057
 20
26.352604
 30
0.0
 10
62.010943
 20
26.352604
 30
0.0
  0
SPLINE
  5
144
100
AcDbEntity
  8
0
 62
7
100
AcDbSpline
 70
8
 71
3
 72
8
 73
4
 74
0
 40
0
 40
0
 40
0
 40
0
 40
1
 40
1
 40
1
 40
1
 10
62.010943
 20
26.352604
 30
0.0
 10
59.885830
 20
26.352604
 30
0.0
 10
58.156440
 20
28.088550
 30
0.0
 10
58.156440
 20
30.220952
 30
0.0
  0
SPLINE
  5
145
100
AcDbEntity
  8
0
 62
7
100
AcDbSpline
 70
8
 71
3
 72
8
 73
4
 74
0
 40
0
 40
0
 40
0
 40
0
 40
1
 40
1
 40
1
 40
1
 10
58.156440
 20
30.220952
 30
0.0
 10
58.156440
 20
32.354813
 30
0.0
 10
59.885830
 20
34.090762
 30
0.0
 10
62.010943
 20
34.090762
 30
0.0
  0
LINE
  5
146
100
AcDbEntity
  8
0
 62
7
100
AcDbLine
 10
62.010943
 20
34.090762
 30
0.0
 11
62.010943
 21
34.090762
 31
0.0
  0
ENDSEC
  0
SECTION
  2
OBJECTS
  0
DICTIONARY
  5
C
330
0
100
AcDbDictionary
  3
ACAD_GROUP
350
D
  3
ACAD_MLINESTYLE
350
17
  0
DICTIONARY
  5
D
330
C
100
AcDbDictionary
  0
DICTIONARY
  5
1A
330
C
100
AcDbDictionary
  0
DICTIONARY
  5
17
330
C
100
AcDbDictionary
  3
STANDARD
350
18
  0
DICTIONARY
  5
19
330
C
100
AcDbDictionary
  0
ENDSEC
  0
EOF
