<?xml version="1.0" encoding="UTF-8" standalone="no"?>
<svg
   version="1.1"
   x="0px"
   y="0px"
   viewBox="0 0 377.95274 377.95277"
   enable-background="new 0 0 70 70"
   xml:space="preserve"
   id="svg39"
   sodipodi:docname="screengraphic.svg"
   inkscape:version="1.1-dev (9017afb, 2021-01-01)"
   width="100mm"
   height="100mm"
   xmlns:inkscape="http://www.inkscape.org/namespaces/inkscape"
   xmlns:sodipodi="http://sodipodi.sourceforge.net/DTD/sodipodi-0.dtd"
   xmlns="http://www.w3.org/2000/svg"
   xmlns:svg="http://www.w3.org/2000/svg"><defs
     id="defs43" /><sodipodi:namedview
     id="namedview41"
     pagecolor="#ffffff"
     bordercolor="#666666"
     borderopacity="1.0"
     objecttolerance="10.0"
     gridtolerance="10.0"
     guidetolerance="10.0"
     inkscape:pageshadow="2"
     inkscape:pageopacity="0.0"
     inkscape:pagecheckerboard="0"
     showgrid="false"
     inkscape:zoom="5.0569141"
     inkscape:cx="45.877781"
     inkscape:cy="42.318298"
     inkscape:window-width="1035"
     inkscape:window-height="830"
     inkscape:window-x="492"
     inkscape:window-y="11"
     inkscape:window-maximized="0"
     inkscape:current-layer="svg39"
     inkscape:document-units="mm"
     units="mm"
     inkscape:lockguides="false" /><path
     style="fill:none;stroke:#000000;stroke-width:1.49254"
     d="m 96.268575,71.71315 -48.280591,5.390402 c -0.866516,-3.804217 -3.891943,-6.517091 -7.537196,-6.517091 -4.141826,0 -7.529455,3.648441 -7.768221,8.23063 L 3.7313395,82.055959 v -9.483944 c 3.5935102,-0.782615 6.3155845,-4.32985 6.3155845,-8.579532 0,-4.242031 -2.7220743,-7.782704 -6.3155845,-8.56377 V 46.329835 L 26.009973,43.835413 c -0.0061,0.138835 -0.01885,0.275569 -0.01885,0.41595 0,4.81576 3.501774,8.733667 7.806662,8.733667 4.304159,0 7.805936,-3.917907 7.805936,-8.733667 0,-0.732786 -0.0899,-1.440885 -0.242502,-2.121474 l 54.907357,-6.142862 z"
     id="path1053" /><path
     style="fill:none;stroke:#000000;stroke-width:1.49254"
     d="m 33.797778,38.501309 c 2.658579,0 4.820864,2.579872 4.820864,5.750054 0,3.170181 -2.162285,5.748595 -4.820864,5.748595 -2.65858,0 -4.821591,-2.578414 -4.821591,-5.748595 0,-3.170182 2.163011,-5.750054 4.821591,-5.750054 z"
     id="path1051" /><path
     style="fill:none;stroke:#000000;stroke-width:1.49254"
     d="m 60.027205,3.7444576 c 1.908667,0.071421 9.228507,0.5655312 16.754593,3.9018736 C 87.825416,12.542805 94.297233,21.07615 96.063697,33.005599 l -55.871534,6.25036 c -1.412643,-2.257571 -3.750106,-3.739722 -6.394385,-3.739722 -3.195232,0 -5.944455,2.160643 -7.151309,5.243097 L 7.5543236,42.897111 Z"
     id="path1049" /><path
     style="fill:none;stroke:#000000;stroke-width:1.49254"
     d="M 99.238342,34.15488 C 95.512832,1.1150291 59.924446,0.7462676 59.54767,0.7462676 c -0.321391,0 -0.634038,0.10348645 -0.892025,0.2958836 L 1.3518815,43.799521 c -0.030154,0.02252 -0.044273,0.05631 -0.072149,0.08055 -0.097929,0.08445 -0.1808279,0.176911 -0.2539788,0.283584 -0.0360748,0.05284 -0.0693255,0.103484 -0.0980208,0.159875 -0.0558433,0.108493 -0.0920089,0.22173 -0.12006557,0.343164 -0.0149403,0.06513 -0.0300627,0.126804 -0.0361657,0.193399 -0.004373,0.04627 -0.0252339,0.08736 -0.0252339,0.134634 V 56.75719 c 0,0.824977 0.66828877,1.492537 1.49253597,1.492537 2.6593087,0 4.8230487,2.575498 4.8230487,5.742764 0,3.176013 -2.16374,5.7588 -4.8230487,5.7588 -0.8242472,0 -1.49253597,0.667559 -1.49253597,1.492537 v 12.481035 c 0,0.424149 0.18073686,0.82935 0.49775497,1.112117 0.274749,0.246326 0.6296636,0.380421 0.994781,0.380421 0.055387,0 0.1107746,-0.0029 0.1661614,-0.0088 L 34.368411,81.633254 c 0.0024,-2.72e-4 0.0042,-0.0018 0.0066,-0.0021 0.0042,-4.57e-4 0.0088,-2.73e-4 0.01313,-8.21e-4 0.08172,-0.01032 0.147941,-0.05302 0.224464,-0.07561 0.112507,-0.03316 0.230659,-0.05409 0.329589,-0.110866 0.07188,-0.04117 0.122343,-0.106312 0.185839,-0.158235 0.08489,-0.0696 0.178366,-0.129 0.245869,-0.214898 0.05566,-0.07088 0.08236,-0.15869 0.124629,-0.238583 0.04719,-0.08936 0.107492,-0.170444 0.135909,-0.268737 0.02806,-0.09666 0.01885,-0.202783 0.02678,-0.305448 0.0071,-0.09219 0.03482,-0.179371 0.02416,-0.274659 -3.63e-4,-0.0034 -0.0027,-0.0061 -0.0031,-0.0093 -4.53e-4,-0.0039 0.0013,-0.0073 8.22e-4,-0.01105 -0.02624,-0.205517 -0.03863,-0.412489 -0.03863,-0.632579 0,-3.176012 2.156451,-5.758801 4.806287,-5.758801 2.490233,0 4.59567,2.316056 4.793898,5.273434 8.19e-4,0.01179 0.0078,0.02096 0.0088,0.03269 0.001,0.01179 -0.0042,0.0224 -0.0029,0.03434 0.01373,0.123164 0.06348,0.230476 0.104579,0.341706 0.02087,0.05639 0.02569,0.119969 0.05293,0.17272 0.17363,0.338061 0.470606,0.59195 0.825793,0.719029 0.0213,0.0076 0.04583,0.0061 0.0675,0.0127 0.138373,0.04245 0.279576,0.08025 0.430069,0.08025 0.02969,0 0.05985,-0.0031 0.08982,-0.0046 0.0042,-1.82e-4 0.0079,0.0019 0.01224,0.0018 0.0039,-2.74e-4 0.0071,-0.0027 0.01091,-0.0029 0.01829,-0.0013 0.03634,-9.1e-4 0.05466,-0.0028 L 97.92656,74.532138 c 0.755741,-0.08454 1.327102,-0.722947 1.327102,-1.483792 v -38.73022 c 0,-0.03416 -0.01858,-0.06432 -0.02096,-0.09821 -0.0015,-0.0224 0.0082,-0.04245 0.0057,-0.06504 z"
     id="path27" /><path
     style="fill:none;stroke:#000000;stroke-width:1.49254"
     d="m 67.366721,26.504174 c 3.621295,0 6.680702,1.775303 6.680702,3.875639 0,2.074101 -3.122081,3.894586 -6.680702,3.894586 -3.568822,0 -6.69892,-1.820485 -6.69892,-3.894586 0,-2.100336 3.067423,-3.875639 6.69892,-3.875639 z"
     id="path1057" /><path
     style="fill:none;stroke:#000000;stroke-width:1.49254"
     d="m 67.366721,37.259472 c 5.419919,0 9.665774,-3.021512 9.665774,-6.879659 0,-3.846486 -4.245855,-6.860709 -9.665774,-6.860709 -5.430118,0 -9.683993,3.014223 -9.683993,6.860709 0,3.858147 4.253875,6.879659 9.683993,6.879659 z"
     id="path29" /><path
     style="fill:none;stroke:#000000;stroke-width:1.49254"
     d="m 85.992085,57.089505 c 1.861297,0 3.375696,1.336577 3.375696,2.979241 0,1.651409 -1.514399,2.995276 -3.375696,2.995276 -1.867128,0 -3.3859,-1.343867 -3.3859,-2.995276 0,-1.642664 1.518772,-2.979241 3.3859,-2.979241 z"
     id="path1061" /><path
     style="fill:none;stroke:#000000;stroke-width:1.49254"
     d="m 85.992085,66.049093 c 3.507606,0 6.36077,-2.683359 6.36077,-5.980347 0,-3.288244 -2.853164,-5.964314 -6.36077,-5.964314 -3.512708,0 -6.370972,2.67607 -6.370972,5.964314 0,3.296988 2.858265,5.980347 6.370972,5.980347 z"
     id="path31" /><path
     style="fill:none;stroke:#000000;stroke-width:1.49254"
     d="m 62.010937,65.909167 c 2.125114,0 3.853776,1.735947 3.853776,3.869808 0,2.132403 -1.728662,3.868349 -3.853776,3.868349 -2.125114,0 -3.854502,-1.735946 -3.854502,-3.868349 0,-2.133861 1.729388,-3.869808 3.854502,-3.869808 z"
     id="path1065" /><path
     style="fill:none;stroke:#000000;stroke-width:1.49254"
     d="m 62.010937,76.632398 c 3.770695,0 6.838848,-3.073983 6.838848,-6.853423 0,-3.779441 -3.068155,-6.85488 -6.838848,-6.85488 -3.771422,0 -6.839576,3.07544 -6.839576,6.85488 0,3.77944 3.068154,6.853423 6.839576,6.853423 z"
     id="path33" /></svg>
